{"title":"Prince - The Beatiful Experience (1994 TV Special) (WEBRIP)","uid":14644552,"size":384529129,"categoryP":"video","categoryS":"music_videos","magnet":"?xt=urn:btih:22b32e813b255d03b6e2ac4034dd771f7cd871ef&amp;dn=Prince+-+The+Beatiful+Experience+%281994+TV+Special%29+%28WEBRIP%29&amp;tr=udp%3A%2F%2Ftracker.leechers-paradise.org%3A6969&amp;tr=udp%3A%2F%2Fzer0day.ch%3A1337&amp;tr=udp%3A%2F%2Fopen.demonii.com%3A1337&amp;tr=udp%3A%2F%2Ftracker.coppersurfer.tk%3A6969&amp;tr=udp%3A%2F%2Fexodus.desync.com%3A6969","seeders":1,"leechers":0,"uploader":"Iznogoud9","files":3,"time":1463575550,"description":"PRINCE - THE BEAUTIFUL EXPERIENCE (1994) (WEBRIP) [MP4]\r\n\r\nTV Special, 1994 (Paisley Park, 1994-02-13)\r\n\r\nTrack Listing:\r\n\r\nInteractive\r\nDays Of Wild\r\nCome\r\nRace\r\nAcknowledge Me\r\nPheromone\r\nThe Jam\r\nShhh\r\nLoose\r\nPapa\r\nThe Most Beautiful Girl In The World\r\nNow\r\nBeautiful (The Most Beautiful Girl In the World Remix)\r\n\r\nFILE INFO:\r\n\r\nGeneral\r\nComplete name                            : Prince - The Beatiful Experience (1994 TV Special) (WEBRIP) [MP4]Prince - The Beautiful Experience (Paisley Park 1994-02-13).mp4\r\nFormat                                   : MPEG-4\r\nFormat profile                           : Sony PSP\r\nCodec ID                                 : MSNV\r\nFile size                                : 367 MiB\r\nDuration                                 : 1h 9mn\r\nOverall bit rate mode                    : Variable\r\nOverall bit rate                         : 736 Kbps\r\nEncoded date                             : UTC 2016-05-11 13:37:12\r\nTagged date                              : UTC 2016-05-11 13:37:12\r\n\r\nVideo\r\nID                                       : 2\r\nFormat                                   : AVC\r\nFormat/Info                              : Advanced Video Codec\r\nFormat profile                           :   \r\nFormat settings, CABAC                   : Yes\r\nFormat settings, ReFrames                : 16 frames\r\nCodec ID                                 : avc1\r\nCodec ID/Info                            : Advanced Video Coding\r\nDuration                                 : 1h 9mn\r\nBit rate                                 : 628 Kbps\r\nWidth                                    : 640 pixels\r\nHeight                                   : 480 pixels\r\nDisplay aspect ratio                     : 4:3\r\nFrame rate mode                          : Variable\r\nFrame rate                               : 29.970 fps\r\nMinimum frame rate                       : 29.412 fps\r\nMaximum frame rate                       : 30.303 fps\r\nColor space                              : YUV\r\nChroma subsampling                       : 4:2:0\r\nBit depth                                : 8 bits\r\nScan type                                : Progressive\r\nBits/(Pixel*Frame)                       : 0.068\r\nStream size                              : 313 MiB (85%)\r\nWriting library                          : x264 core 142 r2479 dd79a61\r\nEncoding settings                        : cabac=1 / ref=16 / deblock=1:0:0 / analyse=0x3:0x133 / me=umh / subme=10 / psy=1 / psy_rd=1.00:0.00 / mixed_ref=1 / me_range=24 / chroma_me=1 / trellis=2 / 8x8dct=1 / cqm=0 / deadzone=21,11 / fast_pskip=1 / chroma_qp_offset=-2 / threads=6 / lookahead_threads=1 / sliced_threads=0 / nr=0 / decimate=1 / interlaced=0 / bluray_compat=0 / constrained_intra=0 / bframes=8 / b_pyramid=2 / b_adapt=2 / b_bias=0 / direct=3 / weightb=1 / open_gop=0 / weightp=2 / keyint=300 / keyint_min=30 / scenecut=40 / intra_refresh=0 / rc_lookahead=60 / rc=crf / mbtree=1 / crf=22.0 / qcomp=0.60 / qpmin=0 / qpmax=69 / qpstep=4 / ip_ratio=1.40 / aq=1:1.00\r\nEncoded date                             : UTC 2016-05-11 13:37:12\r\nTagged date                              : UTC 2016-05-11 13:37:12\r\nColor primaries                          : BT.601 NTSC\r\nTransfer characteristics                 : BT.709\r\nMatrix coefficients                      : BT.601\r\n\r\nAudio\r\nID                                       : 1\r\nFormat                                   : AAC\r\nFormat/Info                              : Advanced Audio Codec\r\nFormat profile                           : LC\r\nCodec ID                                 : 40\r\nDuration                                 : 1h 9mn\r\nBit rate mode                            : Variable\r\nBit rate                                 : 96.0 Kbps\r\nMaximum bit rate                         : 256 Kbps\r\nChannel(s)                               : 2 channels\r\nChannel positions                        : Front: L R\r\nSampling rate                            : 44.1 KHz\r\nCompression mode                         : Lossy\r\nStream size                              : 47.8 MiB (13%)\r\nEncoded date                             : UTC 2016-05-11 13:37:12\r\nTagged date                              : UTC 2016-05-11 13:37:12","torrent":{"xt":"urn:btih:22b32e813b255d03b6e2ac4034dd771f7cd871ef","amp;dn":"Prince+-+The+Beatiful+Experience+%281994+TV+Special%29+%28WEBRIP%29","amp;tr":["udp%3A%2F%2Ftracker.leechers-paradise.org%3A6969","udp%3A%2F%2Fzer0day.ch%3A1337","udp%3A%2F%2Fopen.demonii.com%3A1337","udp%3A%2F%2Ftracker.coppersurfer.tk%3A6969","udp%3A%2F%2Fexodus.desync.com%3A6969"],"infoHash":"22b32e813b255d03b6e2ac4034dd771f7cd871ef","infoHashBuffer":{"type":"Buffer","data":[34,179,46,129,59,37,93,3,182,226,172,64,52,221,119,31,124,216,113,239]},"announce":[],"urlList":[]}}